<svg xmlns="http://www.w3.org/2000/svg" version="1.1" xmlns:xlink="http://www.w3.org/1999/xlink" xmlns:svgjs="http://svgjs.dev/svgjs" width="2000" height="2000" viewBox="0 0 2000 2000"><g transform="matrix(1,0,0,1,-0.28443113772425477,-0.28443113772459583)"><svg viewBox="0 0 334 334" data-background-color="#ffffff" preserveAspectRatio="xMidYMid meet" height="2000" width="2000" xmlns="http://www.w3.org/2000/svg" xmlns:xlink="http://www.w3.org/1999/xlink"><g id="tight-bounds" transform="matrix(1,0,0,1,0.04749999999998522,0.04750000000001364)"><svg viewBox="0 0 333.90454557049503 333.90454557049503" height="333.90454557049503" width="333.90454557049503"><g><svg></svg></g><g><svg viewBox="0 0 333.90454557049503 333.90454557049503" height="333.90454557049503" width="333.90454557049503"><g><path d="M0 166.952c0-92.205 74.747-166.952 166.952-166.952 92.205 0 166.952 74.747 166.953 166.952 0 92.205-74.747 166.952-166.953 166.953-92.205 0-166.952-74.747-166.952-166.953zM166.952 316.63c82.665 0 149.677-67.013 149.678-149.678 0-82.665-67.013-149.677-149.678-149.677-82.665 0-149.677 67.013-149.677 149.677 0 82.665 67.013 149.677 149.677 149.678z" data-fill-palette-color="tertiary" fill="#ffffff" stroke="transparent"></path><ellipse rx="160.27418187383762" ry="160.27418187383762" cx="166.95227278524752" cy="166.95227278524752" fill="#ffffff" stroke="transparent" stroke-width="0" fill-opacity="1" data-fill-palette-color="tertiary"></ellipse></g><g transform="matrix(1,0,0,1,84.59793703976773,71.17305217166897)"><svg viewBox="0 0 164.70867149095957 191.5584412271571" height="191.5584412271571" width="164.70867149095957"><g><svg viewBox="0 0 164.70867149095957 191.5584412271571" height="191.5584412271571" width="164.70867149095957"><g><svg viewBox="0 0 164.70867149095957 191.5584412271571" height="191.5584412271571" width="164.70867149095957"><g><svg viewBox="0 0 164.70867149095957 191.5584412271571" height="191.5584412271571" width="164.70867149095957"><g id="textblocktransform"><svg viewBox="0 0 164.70867149095957 191.5584412271571" height="191.5584412271571" width="164.70867149095957" id="textblock"><g><svg viewBox="0 0 164.70867149095957 191.5584412271571" height="191.5584412271571" width="164.70867149095957"><g transform="matrix(1,0,0,1,0,0)"><svg width="164.70867149095957" viewBox="2.25 -36.5 36.5 42.45" height="191.5584412271571" data-palette-color="#ffffff"><path d="M30 5.95L30 5.95 4.55 5.95Q3.35 5.95 2.8 5.4 2.25 4.85 2.25 3.65L2.25 3.65 2.25-28.75Q2.25-29.4 2.43-29.85 2.6-30.3 2.95-30.6L2.95-30.6 9.4-36.05Q9.65-36.25 10.08-36.38 10.5-36.5 11-36.5L11-36.5 18.75-36.5Q19.95-36.5 20.5-35.95 21.05-35.4 21.05-34.2L21.05-34.2 21.05-13.85 21.15-13.95 27.6-19.4Q27.85-19.6 28.28-19.73 28.7-19.85 29.2-19.85L29.2-19.85 36.45-19.85Q37.65-19.85 38.2-19.3 38.75-18.75 38.75-17.55L38.75-17.55 38.75-1.8Q38.75-1.15 38.58-0.7 38.4-0.25 38.05 0.05L38.05 0.05 31.55 5.45Q31.35 5.65 30.93 5.8 30.5 5.95 30 5.95ZM11 0L36.45 0Q37.4 0 37.83-0.43 38.25-0.85 38.25-1.8L38.25-1.8 38.25-17.55Q38.25-18.5 37.83-18.93 37.4-19.35 36.45-19.35L36.45-19.35 29.2-19.35Q28.25-19.35 27.83-18.93 27.4-18.5 27.4-17.55L27.4-17.55 27.4-9.45 20.55-9.45 20.55-34.2Q20.55-35.15 20.13-35.58 19.7-36 18.75-36L18.75-36 11-36Q10.05-36 9.63-35.58 9.2-35.15 9.2-34.2L9.2-34.2 9.2-1.8Q9.2-0.85 9.63-0.43 10.05 0 11 0L11 0ZM33.05-4.5L14.65-4.5 14.65-31.5 15.15-31.5 15.15-5 32.55-5 32.55-14.85 33.05-14.85 33.05-4.5Z" opacity="1" transform="matrix(1,0,0,1,0,0)" fill="#000000" class="wordmark-text-0" data-fill-palette-color="quaternary" id="text-0"></path></svg></g></svg></g></svg></g></svg></g><g></g></svg></g></svg></g></svg></g></svg></g><defs></defs></svg><rect width="333.90454557049503" height="333.90454557049503" fill="none" stroke="none" visibility="hidden"></rect></g></svg></g></svg>